<svg xmlns="http://www.w3.org/2000/svg" width="117.242" height="105" viewBox="0 0 117.242 105">
  <g id="icon2" transform="translate(-0.145)">
    <circle id="Ellipse_4" data-name="Ellipse 4" cx="33" cy="33" r="33" transform="translate(0.145)" fill="rgba(196,196,196,0.06)"/>
    <g id="tooth_1_1" data-name="tooth (1) 1" transform="translate(15 9)">
      <rect id="tooth_1_1_Background_Mask_" data-name="tooth (1) 1 (Background/Mask)" width="102" height="96" transform="translate(0.145)" fill="none"/>
      <g id="Group" transform="translate(0.479 59.613)">
        <g id="Group-2" data-name="Group">
          <path id="Vector" d="M11.506,0C11.506,5.975,6.343,10.839,0,10.839v3.1c6.343,0,11.506,4.863,11.506,10.839h3.287c0-5.975,5.163-10.839,11.506-10.839v-3.1C19.956,10.839,14.793,5.975,14.793,0Z" fill="#0b498f"/>
          <path id="Vector-2" data-name="Vector" d="M6.356,12.387a14.464,14.464,0,0,0,6.4-6.031,14.464,14.464,0,0,0,6.4,6.031,14.464,14.464,0,0,0-6.4,6.031A14.464,14.464,0,0,0,6.356,12.387Z" transform="translate(0.391)" fill="#fff"/>
        </g>
      </g>
      <g id="Group-3" data-name="Group" transform="translate(13.628 6.968)">
        <path id="Vector-3" data-name="Vector" d="M74.105,12.387A21.522,21.522,0,0,0,43.653,3a11.276,11.276,0,0,1-11.7,0A21.015,21.015,0,0,0,20.871,0C9.362,0,0,8.82,0,19.661v4.083A55.256,55.256,0,0,0,9.742,54.986a53,53,0,0,1,7.485,16.3l1.788,6.742a5.583,5.583,0,0,0,5.478,4.032,5.518,5.518,0,0,0,5.585-4.532l3.687-23.161a4.127,4.127,0,0,1,8.075,0l3.687,23.161a5.521,5.521,0,0,0,5.587,4.532,5.583,5.583,0,0,0,5.478-4.032l1.79-6.742a52.973,52.973,0,0,1,7.487-16.3A56.483,56.483,0,0,0,73.959,37c0,.054.007.107.007.161h3.287c0-5.975,5.163-10.839,11.506-10.839v-3.1c-6.343,0-11.506-4.863-11.506-10.839Z" fill="#0b498f"/>
        <path id="Vector-4" data-name="Vector" d="M55,70.541l-1.792,6.742a2.331,2.331,0,0,1-2.288,1.685,2.306,2.306,0,0,1-2.334-1.9L44.9,53.912A7.2,7.2,0,0,0,37.614,48a7.2,7.2,0,0,0-7.29,5.912L26.638,77.073a2.305,2.305,0,0,1-2.334,1.9,2.338,2.338,0,0,1-2.291-1.685l-1.79-6.742a55.932,55.932,0,0,0-7.909-17.23A52.3,52.3,0,0,1,3.1,23.745V19.661C3.1,10.527,10.985,3.1,20.681,3.1a17.58,17.58,0,0,1,9.279,2.494,14.325,14.325,0,0,0,7.655,2.151,14.315,14.315,0,0,0,7.653-2.151A17.59,17.59,0,0,1,54.547,3.1c8.672,0,16.154,6.087,17.387,14.035L72,18.139a11.673,11.673,0,0,1-9.734,5.086v3.1a11.714,11.714,0,0,1,9.361,4.56,53.053,53.053,0,0,1-8.716,22.428A56,56,0,0,0,55,70.541Z" transform="translate(0.191)" fill="#fff"/>
        <path id="Vector-5" data-name="Vector" d="M65.195,24.774a14.464,14.464,0,0,0,6.4-6.031A14.464,14.464,0,0,0,78,24.774a14.464,14.464,0,0,0-6.4,6.031A14.464,14.464,0,0,0,65.195,24.774Z" transform="translate(4.012)" fill="#fff"/>
      </g>
      <rect id="tooth_1_1_Background_Mask_2" data-name="tooth (1) 1 (Background/Mask)" width="102" height="96" transform="translate(0.145)" fill="none"/>
      <g id="Group-4" data-name="Group" transform="translate(20.554 36.21)">
        <g id="Group-5" data-name="Group">
          <path id="Vector-6" data-name="Vector" d="M0,.351A49.892,49.892,0,0,0,8.345,22.393l2.765-1.675A46.928,46.928,0,0,1,3.266,0Z" fill="#0b498f"/>
        </g>
      </g>
      <g id="Group-6" data-name="Group" transform="translate(39.961 15.038)">
        <g id="Group-7" data-name="Group">
          <path id="Vector-7" data-name="Vector" d="M11.471,2.769A17.906,17.906,0,0,1,1.839,0L0,2.569a21.327,21.327,0,0,0,11.471,3.3,21.325,21.325,0,0,0,11.473-3.3L21.1,0A17.9,17.9,0,0,1,11.471,2.769Z" fill="#0b498f"/>
        </g>
      </g>
      <g id="Group-8" data-name="Group" transform="translate(20.203 30.194)">
        <path id="Vector-8" data-name="Vector" d="M3.287,0H0V.519c0,.887.025,1.774.072,2.657l3.284-.158c-.044-.831-.069-1.663-.069-2.5Z" fill="#0b498f"/>
      </g>
    </g>
  </g>
</svg>
