<svg id="icon5" xmlns="http://www.w3.org/2000/svg" width="128" height="99" viewBox="0 0 128 99">
  <rect id="dental-care_1_Background_Mask_" data-name="dental-care 1 (Background/Mask)" width="102" height="90" transform="translate(26 9)" fill="none"/>
  <g id="Group" transform="translate(66.522 8.948)">
    <g id="Group-2" data-name="Group" transform="translate(0)">
      <path id="Vector" d="M44.615,33.4C51.036,22.58,46.934,8.908,35.452,2.859S9.456.674,3.035,11.49.716,35.979,12.2,42.028a25.058,25.058,0,0,0,25.317-1.221l15.7,14.788a1.77,1.77,0,0,0,2.4,0L60.7,50.8a1.532,1.532,0,0,0,0-2.258Z" transform="translate(0 0)" fill="#0b498f"/>
      <path id="Vector-2" data-name="Vector" d="M3.343,22.523c0-10.585,9.109-19.165,20.345-19.165s20.345,8.581,20.345,19.165S34.924,41.688,23.688,41.688,3.355,33.1,3.343,22.523Z" transform="translate(0.206 0)" fill="#fff"/>
      <path id="Vector-3" data-name="Vector" d="M37.821,38.772a23.163,23.163,0,0,0,2.552-2.662l14.4,13.564-2.689,2.533Z" transform="translate(2.328 0)" fill="#fff"/>
    </g>
  </g>
  <g id="Group-3" data-name="Group" transform="translate(22.814 12.739)">
    <g id="Group-4" data-name="Group" transform="translate(0)">
      <path id="Vector-4" data-name="Vector" d="M70.406,47.724l-.637.958a1.568,1.568,0,0,0-.215.492L62.17,79.765A4.5,4.5,0,0,1,56.8,82.955a4.343,4.343,0,0,1-3.436-3.429L48.283,50.787a7.662,7.662,0,0,0-8.862-5.959A7.488,7.488,0,0,0,33.1,50.787L28.01,79.526A4.464,4.464,0,0,1,22.849,83a4.383,4.383,0,0,1-3.64-3.236l-7.383-30.6a1.568,1.568,0,0,0-.215-.492l-.637-.958A44.937,44.937,0,0,1,3.391,22.806c0-10.828,9.32-19.605,20.815-19.6A21.919,21.919,0,0,1,32.4,4.786a22.07,22.07,0,0,0,5.832,1.468l.4-3.172A18.461,18.461,0,0,1,33.738,1.85c-12.285-4.962-26.513.4-31.78,11.97A21.669,21.669,0,0,0,0,22.806,48,48,0,0,0,8.1,49.4l.485.731L15.9,80.481a7.9,7.9,0,0,0,9.424,5.595,7.626,7.626,0,0,0,6.028-6.02l5.086-28.738A4.29,4.29,0,0,1,41.4,47.985a4.192,4.192,0,0,1,3.538,3.333l5.086,28.738a7.839,7.839,0,0,0,9.062,6.1,7.7,7.7,0,0,0,6.39-5.678L72.8,50.136l.485-.731a48.772,48.772,0,0,0,6.239-13.462l-3.274-.835A45.573,45.573,0,0,1,70.406,47.724Z" transform="translate(0 0)" fill="#0b498f"/>
    </g>
  </g>
  <g id="Group-5" data-name="Group" transform="translate(30 26.48)">
    <g id="Group-6" data-name="Group">
      <path id="Vector-5" data-name="Vector" d="M9.833,0A12.5,12.5,0,0,0,0,12.745H3.391c0-8.1,6.832-9.557,7.121-9.616l-.339-1.564Z" fill="#0b498f"/>
    </g>
  </g>
  <g id="Group-7" data-name="Group" transform="translate(44.157 26.622)">
    <g id="Group-8" data-name="Group">
      <path id="Vector-6" data-name="Vector" d="M3.391,0V3.194H0V0Z" fill="#0b498f"/>
    </g>
  </g>
  <rect id="dental-care_1_Background_Mask_2" data-name="dental-care 1 (Background/Mask)" width="102" height="90" transform="translate(26 9)" fill="none"/>
  <g id="Group-9" data-name="Group" transform="translate(72.057 15.5)">
    <g id="Group-10" data-name="Group">
      <path id="Vector-7" data-name="Vector" d="M0,15.971c0,8.821,7.591,15.971,16.954,15.971s16.954-7.15,16.954-15.971S26.313.01,16.954,0,0,7.15,0,15.971Z" fill="#0b498f"/>
      <path id="Vector-8" data-name="Vector" d="M3.194,15.971c0-7.056,6.072-12.777,13.563-12.777s13.563,5.72,13.563,12.777S24.245,28.74,16.757,28.748,3.194,23.027,3.194,15.971Z" transform="translate(0.197)" fill="#fff"/>
    </g>
  </g>
  <g id="Group-11" data-name="Group" transform="translate(79.698 20.605)">
    <g id="Group-12" data-name="Group" transform="translate(0)">
      <path id="Vector-9" data-name="Vector" d="M12.8.382l.1,3.293L.1,3.293,0,0Z" transform="translate(0 9.124) rotate(-45)" fill="#0b498f"/>
    </g>
  </g>
  <g id="Group-13" data-name="Group" transform="translate(84.272 24.98)">
    <g id="Group-14" data-name="Group" transform="translate(0)">
      <path id="Vector-10" data-name="Vector" d="M16.3.486l.1,3.293L.1,3.293,0,0Z" transform="matrix(0.707, -0.707, 0.707, 0.707, 0, 11.593)" fill="#0b498f"/>
    </g>
  </g>
  <circle id="Ellipse_7" data-name="Ellipse 7" cx="33.5" cy="33.5" r="33.5" fill="rgba(196,196,196,0.06)"/>
</svg>
