<svg id="icon1" xmlns="http://www.w3.org/2000/svg" width="103" height="105" viewBox="0 0 103 105">
  <circle id="Ellipse_2" data-name="Ellipse 2" cx="33.5" cy="33.5" r="33.5" transform="translate(2)" fill="rgba(196,196,196,0.06)"/>
  <g id="dental-insurance_1" data-name="dental-insurance 1" transform="translate(0 9)">
    <rect id="dental-insurance_1_Background_Mask_" data-name="dental-insurance 1 (Background/Mask)" width="103" height="96" fill="none"/>
    <g id="Group" transform="translate(0.339 3.436)">
      <path id="Vector" d="M12.092,52.975A36.892,36.892,0,0,0,6.244,40.2,17.4,17.4,0,0,1,7.12,18.8a9.548,9.548,0,0,1,1.415,3.08l.62,2.387a2.037,2.037,0,0,0,3.9,0l.62-2.387c1.057-4.068,4.325-6.191,6.88-7.256a1.522,1.522,0,0,0,.224-.116,1.955,1.955,0,0,0,.939-1.653,1.9,1.9,0,0,0-.341-1.078q.605-.031,1.21-.028a20.265,20.265,0,0,1,10.146,2.787,12.232,12.232,0,0,0,12.286,0A19.966,19.966,0,0,1,53,11.874a1.426,1.426,0,0,0,1.3-1.562,1.475,1.475,0,0,0-1.658-1.229,23.049,23.049,0,0,0-9.219,3.068,9.073,9.073,0,0,1-9.114,0A23.379,23.379,0,0,0,22.608,8.934a23.69,23.69,0,0,0-5.022.5A9.988,9.988,0,0,1,13.67,3.826L13.05,1.44a2.037,2.037,0,0,0-3.9,0l-.62,2.387c-1.057,4.068-4.325,6.191-6.88,7.256a1.521,1.521,0,0,0-.224.116,1.924,1.924,0,0,0,0,3.305,1.5,1.5,0,0,0,.224.116,14.069,14.069,0,0,1,3.46,2.033,20.106,20.106,0,0,0-1.351,25.11A34.174,34.174,0,0,1,9.181,53.594c.814,3.4,1.959,7.516,3.4,12.248a1.483,1.483,0,0,0,1.433,1.018,1.578,1.578,0,0,0,.413-.055,1.4,1.4,0,0,0,1.022-1.739h0C14.024,60.386,12.893,56.318,12.092,52.975Z" transform="translate(13.394)" fill="#0b498f"/>
      <path id="Vector-2" data-name="Vector" d="M17.389,12.851a13.37,13.37,0,0,0-6.55,7.28,13.371,13.371,0,0,0-6.55-7.28,13.371,13.371,0,0,0,6.55-7.28A13.371,13.371,0,0,0,17.389,12.851Z" transform="translate(13.658)" fill="#fff"/>
      <path id="Vector-3" data-name="Vector" d="M69.394,25.994a24.806,24.806,0,0,1-6.507-.833,20.037,20.037,0,0,0,.509-4.479C63.4,10.789,55.936,2.1,45.658.031a1.494,1.494,0,0,0-1.771,1.08A1.408,1.408,0,0,0,45.034,2.78c8.911,1.8,15.378,9.326,15.378,17.9a17.4,17.4,0,0,1-.34,3.415,9.454,9.454,0,0,1-2.249-1.5,11.076,11.076,0,0,1-1.1-1.2,3.416,3.416,0,0,0-2.7-1.282h-.009a3.428,3.428,0,0,0-2.706,1.275A11.55,11.55,0,0,1,50.2,22.6c-1.325,1.248-4.589,3.349-11.571,3.4l-2.272.016a2.455,2.455,0,0,0-2.5,2.373V42.769a20.519,20.519,0,0,0,2.318,9.422,21.857,21.857,0,0,0,6.48,7.5l3.279,2.4c-1.2,3.711-2.547,7.727-4.012,11.956a4.338,4.338,0,0,1-4.433,2.9,4.289,4.289,0,0,1-4.168-3.231C30.752,63.575,28.808,55,27.541,48.212a2.976,2.976,0,0,0-3.016-2.384h0a2.976,2.976,0,0,0-3.017,2.384C20.239,55,18.3,63.579,15.729,73.714a4.289,4.289,0,0,1-4.168,3.231,4.342,4.342,0,0,1-4.433-2.9c-1.546-4.461-2.962-8.687-4.208-12.56a1.51,1.51,0,0,0-1.861-.937,1.393,1.393,0,0,0-1,1.753c1.252,3.892,2.674,8.137,4.227,12.617a7.287,7.287,0,0,0,7.391,4.837,7.2,7.2,0,0,0,6.949-5.387c2.58-10.189,4.536-18.825,5.815-25.667.006-.033.012-.049.01-.047a.193.193,0,0,1,.129-.006.161.161,0,0,1,.017.053c1.278,6.838,3.234,15.474,5.815,25.667a7.2,7.2,0,0,0,6.949,5.387q.168.006.334.006a7.259,7.259,0,0,0,7.058-4.843c1.338-3.859,2.578-7.544,3.7-10.984l1.672,1.223a6.643,6.643,0,0,0,7.768,0l7.473-5.464a21.855,21.855,0,0,0,6.48-7.5,20.519,20.519,0,0,0,2.318-9.422V28.383a2.455,2.455,0,0,0-2.5-2.373h0Z" transform="translate(27.741 9.367)" fill="#0b498f"/>
      <path id="Vector-4" data-name="Vector" d="M67.034,50.954a18.985,18.985,0,0,1-5.63,6.517l-7.473,5.464a3.513,3.513,0,0,1-4.109,0l-7.473-5.464a18.99,18.99,0,0,1-5.63-6.517A17.827,17.827,0,0,1,34.7,42.768V28.817l1.811-.012c8.046-.055,12.012-2.667,13.659-4.22a14.5,14.5,0,0,0,1.388-1.5.4.4,0,0,1,.32-.151h0a.386.386,0,0,1,.312.148,13.975,13.975,0,0,0,1.381,1.508c1.327,1.25,5.313,4.163,13.66,4.22l1.811.012V42.768A17.827,17.827,0,0,1,67.034,50.954Z" transform="translate(29.877 9.367)" fill="#fff"/>
      <path id="Vector-5" data-name="Vector" d="M20.356,2.23A20.992,20.992,0,0,1,16.473.47,3.447,3.447,0,0,0,13,.47,21.017,21.017,0,0,1,9.116,2.23,32.976,32.976,0,0,1,1.9,3.776,2.066,2.066,0,0,0,0,5.784v9.664A16.133,16.133,0,0,0,6.8,28.532l6.619,4.839a2.25,2.25,0,0,0,2.631,0l6.618-4.839a16.424,16.424,0,0,0,6.447-9.748,1.41,1.41,0,0,0-1.165-1.657,1.491,1.491,0,0,0-1.759,1.1,13.63,13.63,0,0,1-5.353,8.087l-6.1,4.463-6.1-4.463A13.4,13.4,0,0,1,2.984,15.448V6.483a35.568,35.568,0,0,0,7.155-1.613A24.069,24.069,0,0,0,14.59,2.848a.285.285,0,0,1,.292,0,24.059,24.059,0,0,0,4.451,2.023,35.537,35.537,0,0,0,7.154,1.613V11.6a1.495,1.495,0,0,0,2.984,0V5.784a2.067,2.067,0,0,0-1.9-2.008h0A32.981,32.981,0,0,1,20.356,2.23Z" transform="translate(67.017 36.568)" fill="#0b498f"/>
      <path id="Vector-6" data-name="Vector" d="M6.291,9.425,2.676,4.978A1.554,1.554,0,0,0,.585,4.717a1.352,1.352,0,0,0-.277,1.97L5.09,12.57a1.525,1.525,0,0,0,1.174.551h.01a1.527,1.527,0,0,0,1.172-.535L16.07,2.275A1.351,1.351,0,0,0,15.822.3a1.554,1.554,0,0,0-2.1.234Z" transform="translate(74.518 45.018)" fill="#0b498f"/>
      <path id="Vector-7" data-name="Vector" d="M11.152,5.647A4.77,4.77,0,0,1,8.1,2.46l-.312-1.2h0A1.73,1.73,0,0,0,6.089,0a1.73,1.73,0,0,0-1.7,1.257l-.312,1.2A4.77,4.77,0,0,1,1.027,5.647,1.528,1.528,0,0,0,.8,5.762a1.645,1.645,0,0,0,0,2.826,1.535,1.535,0,0,0,.224.116,4.771,4.771,0,0,1,3.049,3.187l.313,1.2a1.73,1.73,0,0,0,1.7,1.256,1.73,1.73,0,0,0,1.7-1.257l.312-1.2A4.771,4.771,0,0,1,11.152,8.7a1.791,1.791,0,0,0,1.027-1.529,1.671,1.671,0,0,0-.8-1.413h0A1.51,1.51,0,0,0,11.152,5.647Z" transform="translate(0 45.796)" fill="#0b498f"/>
      <path id="Vector-8" data-name="Vector" d="M3.892,7.175A7.437,7.437,0,0,0,5.849,5.154,7.441,7.441,0,0,0,7.807,7.175,7.44,7.44,0,0,0,5.85,9.2h0A7.441,7.441,0,0,0,3.892,7.175Z" transform="translate(0.24 45.796)" fill="#fff"/>
      <path id="Vector-9" data-name="Vector" d="M8.1,2.46l-.313-1.2A1.73,1.73,0,0,0,6.089,0a1.73,1.73,0,0,0-1.7,1.257l-.313,1.2A4.77,4.77,0,0,1,1.027,5.647,1.535,1.535,0,0,0,.8,5.763a1.645,1.645,0,0,0,0,2.826,1.51,1.51,0,0,0,.224.116,4.77,4.77,0,0,1,3.049,3.187l.313,1.2a1.73,1.73,0,0,0,1.7,1.257A1.73,1.73,0,0,0,7.79,13.1l.313-1.2a4.771,4.771,0,0,1,3.049-3.187,1.791,1.791,0,0,0,1.027-1.529,1.835,1.835,0,0,0-1.027-1.529A4.77,4.77,0,0,1,8.1,2.46Z" transform="translate(32.124 20.909)" fill="#0b498f"/>
      <path id="Vector-10" data-name="Vector" d="M3.893,7.176A7.44,7.44,0,0,0,5.85,5.154,7.437,7.437,0,0,0,7.807,7.176,7.44,7.44,0,0,0,5.85,9.2,7.44,7.44,0,0,0,3.893,7.176Z" transform="translate(32.364 20.909)" fill="#fff"/>
    </g>
    <rect id="dental-insurance_1_Background_Mask_2" data-name="dental-insurance 1 (Background/Mask)" width="103" height="96" fill="none"/>
  </g>
</svg>
