<svg xmlns="http://www.w3.org/2000/svg" xmlns:xlink="http://www.w3.org/1999/xlink" width="181.272" height="48" viewBox="0 0 181.272 48">
  <defs>
    <clipPath id="clip-path">
      <rect id="Retângulo_1" data-name="Retângulo 1" width="48" height="48" fill="none"/>
    </clipPath>
    <clipPath id="clip-path-2">
      <rect id="Retângulo_3" data-name="Retângulo 3" width="181.272" height="48" fill="none"/>
    </clipPath>
  </defs>
  <g id="Logotipo" transform="translate(0 0)">
    <g id="Grupo_8" data-name="Grupo 8" transform="translate(0 0)">
      <g id="Grupo_7" data-name="Grupo 7" clip-path="url(#clip-path)">
        <path id="Caminho_1" data-name="Caminho 1" d="M32.278,48c-1.494-.034-2.7-1.52-3.908-4.818A38.7,38.7,0,0,1,26.98,37.6c-.683-3.446-1.39-7.011-3.153-7.011h-.01c-1.781.013-2.49,3.575-3.177,7.022a38.7,38.7,0,0,1-1.389,5.571c-1.207,3.291-2.412,4.775-3.908,4.81h-.051c-1.859,0-3.117-2.416-4.006-4.527a28.74,28.74,0,0,1-1.944-8.424c-.418-3.548-.815-6.9-3.773-11.246C-.675,14.619,2.976,3.246,10.764.748A16.213,16.213,0,0,1,23.81,2.272,16.214,16.214,0,0,1,36.856.748c7.657,2.455,11.519,13.742,5.2,23.036C39.124,28.1,38.7,31.545,38.247,35.192a29.118,29.118,0,0,1-1.915,8.272c-.889,2.115-2.147,4.534-4,4.534Z" transform="translate(0.186 0.002)" fill="#c4c4c4"/>
        <path id="Caminho_2" data-name="Caminho 2" d="M37.035,6.792A.937.937,0,0,0,35.487,7.85a8.262,8.262,0,0,1,.975,1.972,11.506,11.506,0,0,1-.669,8.68.938.938,0,0,0,1.688.818,13.389,13.389,0,0,0,.754-10.109,10.185,10.185,0,0,0-1.2-2.418" transform="translate(2.741 0.495)" fill="#fff"/>
        <path id="Caminho_3" data-name="Caminho 3" d="M13.2,19.121l-1.259-3.774L8.163,14.089a.937.937,0,0,1,0-1.778l3.775-1.259L13.2,7.278a.937.937,0,0,1,1.778,0l1.258,3.774,3.775,1.258a.937.937,0,0,1,0,1.778l-3.775,1.26-1.258,3.774a.937.937,0,0,1-1.778,0" transform="translate(0.584 0.515)" fill="#fff"/>
        <path id="Caminho_4" data-name="Caminho 4" d="M32.709,5.026a.937.937,0,1,0,.938-.938.937.937,0,0,0-.937.938" transform="translate(2.538 0.317)" fill="#fff"/>
      </g>
    </g>
    <g id="Grupo_10" data-name="Grupo 10" transform="translate(0 0)">
      <g id="Grupo_9" data-name="Grupo 9" clip-path="url(#clip-path-2)">
        <path id="Caminho_5" data-name="Caminho 5" d="M66.01,12.764a8.6,8.6,0,0,1,3.612,3.43A10.218,10.218,0,0,1,70.9,21.36,10.062,10.062,0,0,1,69.622,26.5a8.648,8.648,0,0,1-3.612,3.4,11.669,11.669,0,0,1-5.418,1.2H53.761V11.56h6.831a11.669,11.669,0,0,1,5.418,1.2m-.8,13.328a6.4,6.4,0,0,0,1.68-4.732,6.547,6.547,0,0,0-1.68-4.774,6.345,6.345,0,0,0-4.76-1.722H57.68V27.772h2.773a6.437,6.437,0,0,0,4.76-1.681" transform="translate(4.171 0.897)" fill="#c4c4c4"/>
        <path id="Caminho_6" data-name="Caminho 6" d="M86.772,24.251H75.432a3.851,3.851,0,0,0,1.176,2.631,3.622,3.622,0,0,0,2.547.954,3.2,3.2,0,0,0,3.108-1.878h4.228a7.054,7.054,0,0,1-2.575,3.682,7.519,7.519,0,0,1-4.677,1.442,8.073,8.073,0,0,1-4.017-.994,6.99,6.99,0,0,1-2.773-2.814,8.613,8.613,0,0,1-.994-4.2,8.772,8.772,0,0,1,.98-4.228,6.835,6.835,0,0,1,2.745-2.8A8.809,8.809,0,0,1,83.2,16.02a6.712,6.712,0,0,1,2.717,2.7,8.189,8.189,0,0,1,.966,4.018,9.274,9.274,0,0,1-.112,1.512m-3.948-2.633A3.11,3.11,0,0,0,81.732,19.2a3.875,3.875,0,0,0-2.6-.908,3.555,3.555,0,0,0-2.449.883,3.868,3.868,0,0,0-1.218,2.448Z" transform="translate(5.544 1.169)" fill="#c4c4c4"/>
        <path id="Caminho_7" data-name="Caminho 7" d="M101.5,16.843a6.7,6.7,0,0,1,1.708,4.887v9.1h-3.92V22.261a4.025,4.025,0,0,0-.925-2.842,3.271,3.271,0,0,0-2.519-.995,3.355,3.355,0,0,0-2.564.995,3.989,3.989,0,0,0-.936,2.842v8.568h-3.92V15.317h3.92v1.932a5.407,5.407,0,0,1,2-1.582,6.2,6.2,0,0,1,2.675-.574,5.982,5.982,0,0,1,4.482,1.75" transform="translate(6.861 1.171)" fill="#c4c4c4"/>
        <path id="Caminho_8" data-name="Caminho 8" d="M110.251,18.8v7.5a1.483,1.483,0,0,0,.378,1.135,1.855,1.855,0,0,0,1.274.349h1.82v3.3H111.26q-4.957,0-4.957-4.816V18.8h-1.848v-3.22H106.3V11.742h3.948v3.836h3.472V18.8Z" transform="translate(8.105 0.911)" fill="#c4c4c4"/>
        <path id="Caminho_9" data-name="Caminho 9" d="M115.683,18.847a6.873,6.873,0,0,1,2.549-2.8,6.793,6.793,0,0,1,3.6-.98,6.325,6.325,0,0,1,3.038.7,6.172,6.172,0,0,1,2.086,1.764V15.319H130.9V30.831h-3.948V28.564a5.838,5.838,0,0,1-2.086,1.8,6.383,6.383,0,0,1-3.067.714,6.593,6.593,0,0,1-3.569-1.008,7.048,7.048,0,0,1-2.549-2.843,9.116,9.116,0,0,1-.939-4.214,8.97,8.97,0,0,1,.939-4.171m10.71,1.778a3.955,3.955,0,0,0-1.512-1.568,4.042,4.042,0,0,0-2.044-.546,3.969,3.969,0,0,0-2.016.532,4.021,4.021,0,0,0-1.5,1.554,4.878,4.878,0,0,0-.573,2.421,5.049,5.049,0,0,0,.573,2.452,4.152,4.152,0,0,0,1.513,1.61,3.842,3.842,0,0,0,2,.559,4.042,4.042,0,0,0,2.044-.546,3.941,3.941,0,0,0,1.512-1.568,5.028,5.028,0,0,0,.56-2.449,5.036,5.036,0,0,0-.56-2.45" transform="translate(8.903 1.169)" fill="#c4c4c4"/>
        <rect id="Retângulo_2" data-name="Retângulo 2" width="3.92" height="20.72" transform="translate(143.638 11.28)" fill="#c4c4c4"/>
        <path id="Caminho_10" data-name="Caminho 10" d="M140.557,29.551a2.3,2.3,0,0,1,0-3.276,2.423,2.423,0,0,1,1.75-.657,2.34,2.34,0,0,1,1.708.657,2.334,2.334,0,0,1,0,3.276,2.34,2.34,0,0,1-1.708.657,2.423,2.423,0,0,1-1.75-.657" transform="translate(10.852 1.988)" fill="#0b498f"/>
        <path id="Caminho_11" data-name="Caminho 11" d="M147.572,13.259a2.3,2.3,0,0,1,0-3.276,2.581,2.581,0,0,1,3.444,0,2.3,2.3,0,0,1,0,3.276,2.581,2.581,0,0,1-3.444,0m3.654,18.017h-3.92V15.765h3.92Z" transform="translate(11.397 0.724)" fill="#0b498f"/>
        <path id="Caminho_12" data-name="Caminho 12" d="M167.577,16.843a6.7,6.7,0,0,1,1.708,4.887v9.1h-3.92V22.261a4.025,4.025,0,0,0-.923-2.842,3.275,3.275,0,0,0-2.52-.995,3.354,3.354,0,0,0-2.562.995,3.985,3.985,0,0,0-.937,2.842v8.568H154.5V15.317h3.92v1.932a5.4,5.4,0,0,1,2-1.582,6.2,6.2,0,0,1,2.675-.574,5.979,5.979,0,0,1,4.481,1.75" transform="translate(11.987 1.171)" fill="#0b498f"/>
      </g>
    </g>
  </g>
</svg>
